<svg width="69" height="29" viewBox="0 0 69 29" fill="none" xmlns="http://www.w3.org/2000/svg">
<path d="M0 28.0546V0.819071H2.90124V24.7781H13.6058V27.9522H0V28.0546Z" fill="#062B38"/>
<path d="M15.707 18.123C15.707 14.7442 16.4073 12.1845 17.8079 10.4438C19.2085 8.70323 21.0093 7.88412 23.1102 7.88412C25.2111 7.88412 27.0119 8.70323 28.4125 10.4438C29.8131 12.1845 30.5134 14.6418 30.5134 17.9183C30.5134 21.5019 29.8131 24.0616 28.4125 25.8022C27.0119 27.5428 25.2111 28.3619 23.1102 28.3619C21.0093 28.3619 19.2085 27.5428 17.8079 25.8022C16.4073 24.164 15.707 21.6043 15.707 18.123ZM18.4082 18.123C18.4082 20.6828 18.9084 22.5258 19.8088 23.8568C20.7092 25.0855 21.8096 25.6998 23.2102 25.6998C24.5108 25.6998 25.5112 25.0855 26.4116 23.8568C27.312 22.6281 27.7122 20.6828 27.7122 18.2254C27.7122 15.6657 27.2119 13.8227 26.3116 12.594C25.4112 11.3654 24.3107 10.751 22.9101 10.751C21.6096 10.751 20.6091 11.3654 19.7087 12.594C18.9084 13.7203 18.4082 15.6657 18.4082 18.123Z" fill="#062B38"/>
<path d="M43.9186 20.7851L46.5197 21.1947C46.2196 23.5497 45.4193 25.2903 44.2188 26.5189C43.0183 27.7476 41.5176 28.3619 39.8169 28.3619C37.716 28.3619 36.0153 27.5428 34.7147 25.8022C33.4142 24.0616 32.7139 21.5019 32.7139 18.123C32.7139 14.7442 33.4142 12.1845 34.7147 10.4438C36.0153 8.70323 37.816 7.88412 39.9169 7.88412C41.5176 7.88412 42.9182 8.39607 44.0187 9.41996C45.1191 10.4438 45.8194 11.9797 46.1196 14.1299L43.5185 14.6418C43.4184 13.3107 43.0183 12.2869 42.418 11.5701C41.8177 10.9558 41.0174 10.5462 40.117 10.5462C38.8165 10.5462 37.716 11.1606 36.8156 12.2869C35.9152 13.5155 35.5151 15.3585 35.5151 17.9183C35.5151 20.5804 35.9152 22.5258 36.7156 23.7544C37.5159 24.9831 38.6164 25.5974 39.9169 25.5974C40.9174 25.5974 41.8177 25.1879 42.518 24.3688C43.3184 23.7544 43.7186 22.5258 43.9186 20.7851Z" fill="#062B38"/>
<path d="M59.1254 25.5974C58.225 26.519 57.3247 27.2357 56.3242 27.7476C55.3238 28.2596 54.3234 28.4643 53.323 28.4643C51.7223 28.4643 50.3217 27.9524 49.4213 26.9285C48.4209 25.9046 47.9207 24.5736 47.9207 22.8329C47.9207 21.7067 48.1207 20.6828 48.6209 19.7613C49.1212 18.8398 49.7214 18.2254 50.5218 17.7135C51.3221 17.2015 52.5226 16.8944 54.1233 16.5872C56.3242 16.28 57.9249 15.8705 58.9253 15.4609V14.6418C58.9253 13.3107 58.7253 12.3892 58.225 11.7749C57.5247 10.9558 56.5243 10.5462 55.1237 10.5462C53.9232 10.5462 52.9228 10.8534 52.3225 11.3654C51.7223 11.8773 51.2221 12.9012 50.9219 14.3346L48.3208 13.9251C48.721 11.7749 49.4213 10.2391 50.6218 9.31757C51.7223 8.39607 53.423 7.88412 55.5239 7.88412C57.2246 7.88412 58.5252 8.19129 59.4256 8.80562C60.3259 9.41996 60.9262 10.2391 61.2263 11.1606C61.4264 12.0821 61.6265 13.5155 61.6265 15.2561V19.6589C61.6265 22.7306 61.7265 24.7783 61.8266 25.4951C61.9266 26.3142 62.1267 27.1333 62.5269 27.85H59.7257C59.3255 27.3381 59.2255 26.519 59.1254 25.5974ZM58.9253 18.123C57.9249 18.635 56.5243 19.0445 54.5235 19.3517C53.423 19.5565 52.6227 19.7613 52.1224 20.0684C51.7223 20.2732 51.3221 20.6828 51.122 21.0923C50.9219 21.6043 50.7218 22.1162 50.7218 22.7306C50.7218 23.6521 51.022 24.4712 51.6222 24.9831C52.2225 25.4951 53.0228 25.8022 54.0233 25.8022C55.0237 25.8022 55.824 25.5974 56.6244 25.0855C57.4247 24.5736 58.025 23.8568 58.3251 23.0377C58.7253 22.2186 58.9253 20.9899 58.9253 19.3517V18.123Z" fill="#062B38"/>
<path d="M65.6282 28.0546V0.819071H68.3294V27.9522H65.6282V28.0546Z" fill="#062B38"/>
</svg>
