<svg width="40" height="30" viewBox="0 0 40 30" fill="none" xmlns="http://www.w3.org/2000/svg">
<path d="M15.237 3.17406C15.0369 3.17406 14.7368 3.58362 14.2366 4.40273C13.7364 5.22184 13.2361 6.24573 12.6359 7.4744C12.0356 8.70307 11.4354 10.0341 10.8351 11.4676C10.2349 12.901 9.63461 14.2321 9.03436 15.5631C8.53414 16.7918 8.03393 17.8157 7.63376 18.7372C7.23359 19.6587 7.0335 20.0683 7.0335 20.0683C6.63333 20.4778 6.23316 21.0922 5.83299 21.9113C5.53286 22.7304 5.23273 23.6519 5.03265 24.5734C4.83256 25.4949 4.63248 26.314 4.53243 27.0307C4.43239 27.7474 4.33235 28.157 4.33235 28.3618C4.23231 28.6689 4.13227 28.9761 3.93218 29.1809C3.73209 29.3857 3.63205 29.5904 3.53201 29.8976C3.53201 30 3.43197 30 3.33193 30C3.23188 30 3.23188 30 3.23188 30H3.13184C2.93175 29.8976 2.73167 29.7952 2.63162 29.6928C2.53158 29.5904 2.43154 29.3857 2.3315 29.1809C2.23146 28.9761 2.13141 28.7713 2.03137 28.4642C1.93133 28.2594 1.73124 27.9522 1.53115 27.7474C1.43111 27.6451 1.33107 27.5427 1.33107 27.3379C1.33107 27.1331 1.23102 27.0307 1.23102 26.9283C1.13098 26.4164 1.13098 25.8021 1.03094 25.2901C0.930899 24.7782 1.03094 24.1638 1.13098 23.6519C1.23103 23.0375 1.33107 22.4232 1.23102 21.9113C1.23102 21.3993 1.23103 20.9898 1.33107 20.785C1.43112 20.6826 1.43111 20.5802 1.43111 20.4778C1.33107 20.0683 1.43111 19.5563 1.53115 19.1468C1.6312 18.7372 1.73124 18.3276 1.73124 17.8157C1.83128 17.4061 1.83128 16.9966 1.93133 16.7918C2.03137 16.587 2.03137 16.3823 2.03137 16.3823C2.03137 15.8703 2.13141 15.3584 2.3315 14.8464C2.53158 14.3345 2.63162 13.8225 2.63162 13.3106C2.63162 13.0034 2.73167 12.7986 2.83171 12.4915C2.93175 12.2867 3.03179 11.9795 3.03179 11.6724C3.13184 11.2628 3.23188 10.8532 3.23188 10.4437C3.33192 10.0341 3.43197 9.62457 3.53201 9.31741C4.03222 8.70307 4.13226 8.19113 4.2323 7.78157C4.33235 7.26962 4.43239 6.75768 4.63248 6.34812C4.83256 5.83618 5.03265 5.32423 5.13269 4.81229C5.23273 4.30034 5.43282 3.78839 5.6329 3.27645C5.73295 2.96928 5.83299 2.66211 5.93303 2.45734C6.03308 2.25256 6.13311 1.94539 6.23316 1.63822C6.3332 1.43345 6.43325 1.22867 6.53329 1.12628C6.73337 1.02389 6.83342 0.9215 6.93346 0.819111C7.0335 0.716722 7.0335 0.716722 7.13354 0.819111C7.23359 0.9215 7.43367 1.02389 7.63376 1.02389C7.83384 1.02389 8.03393 1.22867 8.13397 1.43345C8.13397 1.53583 8.13397 1.63822 8.23401 1.63822C8.53414 1.63822 8.73422 1.74061 8.73422 2.04778C8.73422 2.25256 8.83427 2.45734 8.93431 2.55973C8.83427 2.55973 8.83427 2.66211 8.83427 2.7645C8.83427 2.86689 8.83427 2.96928 8.83427 2.96928C8.83427 3.07167 8.83427 3.07167 8.83427 3.17406C8.83427 3.27645 8.73423 3.27645 8.63418 3.37884C8.53414 3.37884 8.53414 3.37884 8.53414 3.37884C8.53414 3.37884 8.53414 3.37884 8.63418 3.37884C8.83427 3.58362 8.93432 3.78839 8.83427 3.99317C8.73423 4.19795 8.73423 4.40273 8.63418 4.60751C8.53414 5.01706 8.53414 5.32423 8.53414 5.73379C8.53414 6.14334 8.4341 6.45051 8.33406 6.86007C8.23402 7.26962 8.13397 7.67918 8.13397 8.08874C8.13397 8.49829 8.03393 8.90785 7.93389 9.31741C7.83384 9.4198 7.83385 9.52218 7.83385 9.62457C7.83385 9.72696 7.83385 9.82935 7.83385 10.0341C7.83385 10.2389 7.83384 10.4437 7.7338 10.6485C7.7338 10.9556 7.63376 11.3652 7.43367 11.8771C7.33363 12.0819 7.33363 12.2867 7.43367 12.4915C7.43367 12.6962 7.53371 12.901 7.53371 13.1058C8.13397 11.8771 8.63419 10.9556 8.93431 10.3413C9.23444 9.72696 9.53456 9.11263 9.73465 8.70307C9.93474 8.29352 10.1348 7.88396 10.3349 7.57679C10.535 7.26962 10.7351 6.96246 11.1352 6.5529C11.3353 6.24573 11.5354 6.04095 11.6355 5.73379C11.7355 5.52901 11.8355 5.22184 12.0356 4.81229C12.2357 4.50512 12.4358 4.09556 12.7359 3.58362C13.0361 3.07167 13.5363 2.45734 14.2366 1.63822C14.3366 1.53583 14.3366 1.53583 14.3366 1.53583C14.3366 1.53583 14.3366 1.43345 14.3366 1.33106C14.3366 1.22867 14.2366 1.22867 14.1365 1.22867C14.0365 1.22867 13.9364 1.22867 13.9364 1.22867C14.1365 0.9215 14.4367 0.716722 14.6367 0.511944C15.0369 0.102387 15.337 -1.90735e-06 15.7372 -1.90735e-06C16.6376 -1.90735e-06 17.1378 0.409554 17.2379 1.33106C17.3379 1.843 17.3379 2.25256 17.4379 2.45734C17.4379 2.66211 17.538 2.86689 17.538 2.96928C17.538 3.07167 17.538 3.07167 17.638 3.17406C17.638 3.17406 17.638 3.27645 17.638 3.48123C17.638 4.30034 17.638 4.81229 17.638 5.22184C17.638 5.6314 17.638 5.93857 17.7381 6.24573C17.7381 6.5529 17.7381 6.86007 17.7381 7.26962C17.7381 7.67918 17.638 8.19113 17.538 8.90785C17.3379 10.0341 17.1378 10.8532 17.0378 11.4676C16.9377 12.0819 16.8377 12.3891 16.7376 12.6962C16.6376 12.901 16.6376 13.1058 16.5376 13.2082C16.4375 13.3106 16.4375 13.413 16.4375 13.6177C16.4375 13.9249 16.3375 14.2321 16.2374 14.5392C16.0373 14.8464 16.0373 15.1536 16.0373 15.4608C15.9373 15.6655 15.8373 15.8703 15.9373 16.0751C15.9373 16.2799 15.9373 16.4846 15.8373 16.6894C15.9373 16.6894 16.0373 16.6894 16.0373 16.587C16.1374 16.4846 16.2374 16.3823 16.3375 16.0751C16.4375 15.7679 16.7376 15.3584 17.0378 14.6416C17.3379 14.0273 17.7381 13.1058 18.3383 12.0819C18.4384 11.7747 18.7385 11.2628 19.0386 10.6485C19.3387 10.0341 19.7389 9.4198 20.1391 8.70307C20.5393 8.08874 20.9394 7.4744 21.3396 6.96246C21.7398 6.45051 22.1399 6.24573 22.4401 6.24573C22.5401 6.24573 22.6402 6.24573 22.7402 6.24573C22.8402 6.14334 22.9403 6.14334 23.1404 6.04096C23.2404 6.14334 23.2404 6.34812 23.3405 6.5529C23.3405 6.75768 23.4405 6.96246 23.4405 7.16723C23.4405 7.37201 23.5405 7.57679 23.5405 7.67918C23.5405 7.88396 23.6406 7.98635 23.7406 8.08874C23.8407 8.19113 23.8407 8.19113 23.7406 8.29352C23.6406 8.3959 23.7406 8.49829 23.7406 8.60068C23.8407 8.70307 23.9407 8.70307 24.1408 8.70307C24.3409 8.70307 24.4409 8.80546 24.4409 9.11263C24.541 9.62457 24.641 10.0341 24.7411 10.5461C24.7411 11.058 24.7411 11.4676 24.641 11.9795C24.541 12.2867 24.541 12.6962 24.641 13.0034C24.7411 13.3106 24.641 13.7201 24.541 14.0273C24.541 14.1297 24.541 14.1297 24.541 14.2321C24.541 14.3345 24.541 14.3345 24.4409 14.4369C24.3409 14.6416 24.2408 14.9488 24.2408 15.1536C24.2408 15.4608 24.2408 15.6655 24.1408 15.9727C24.1408 16.2799 24.0408 16.587 23.9407 16.9966C23.8407 17.3038 23.7406 17.5085 23.7406 17.6109C23.7406 17.9181 23.7406 18.1229 23.6406 18.43C23.5405 18.6348 23.4405 18.942 23.3405 19.1468C23.2404 19.5563 23.1404 19.7611 23.2404 19.8635C23.3405 19.9659 23.2404 20.0683 23.2404 20.273C23.0403 20.6826 22.9403 21.0922 22.8402 21.5017C22.7402 21.9113 22.6402 22.3208 22.6402 22.7304C22.6402 22.8328 22.5401 23.0375 22.5401 23.3447C22.4401 23.6519 22.34 23.959 22.34 24.3686C22.24 24.6758 22.1399 25.0853 22.0399 25.2901C21.9399 25.5973 21.9399 25.8021 21.8398 25.8021C21.7398 25.9044 21.7398 26.0068 21.7398 26.0068C21.7398 26.1092 21.7398 26.2116 21.7398 26.314C21.6397 26.8259 21.5397 27.2355 21.5397 27.5427C21.4396 27.8498 21.4396 28.0546 21.4396 28.2594C21.4396 28.4642 21.4396 28.5666 21.4396 28.7713C21.4396 28.8737 21.4396 29.0785 21.4396 29.1809C21.5397 29.3857 21.4396 29.5904 21.3396 29.6928C21.2396 29.7952 21.1395 29.8976 20.9394 29.8976C20.8394 29.8976 20.7393 29.8976 20.6393 29.7952C19.939 29.4881 19.5388 29.0785 19.3388 28.6689C19.1387 28.2594 19.0386 27.7474 19.0386 27.3379C19.0386 27.0307 19.0386 26.6212 19.0386 26.2116C19.0386 25.8021 19.0386 25.2901 19.0386 24.6758C19.0386 24.0614 19.1387 23.3447 19.2387 22.5256C19.3387 21.7065 19.6389 20.6826 19.939 19.4539C20.039 19.1468 20.1391 18.7372 20.2391 18.43C20.3392 18.1229 20.4392 17.7133 20.4392 17.3038C20.6393 16.8942 20.7393 16.4846 20.7393 16.0751C20.7393 15.6655 20.9394 15.256 21.1395 14.8464C21.1395 14.744 21.1395 14.744 21.1395 14.6416C21.1395 14.5393 21.1395 14.5393 21.1395 14.4369C21.2396 14.0273 21.2396 13.8225 21.2396 13.7201C21.2396 13.6177 21.3396 13.5154 21.3396 13.413C21.3396 13.3106 21.4396 13.3106 21.4396 13.2082C21.4396 13.2082 21.5397 13.1058 21.5397 12.901C21.6397 12.4915 21.6397 12.1843 21.7398 11.7747C21.7398 11.3652 21.8398 11.058 21.9399 10.6485C21.8398 10.7509 21.7398 10.7509 21.7398 10.8532C21.6397 10.9556 21.5397 11.058 21.4396 11.3652C21.2396 11.57 21.0395 11.9795 20.8394 12.5939C20.5393 13.1058 20.2391 13.9249 19.7389 14.8464C19.6389 15.0512 19.5388 15.256 19.5388 15.3584C19.4388 15.4608 19.4388 15.5631 19.3388 15.7679C19.2387 15.8703 19.1387 16.1775 18.9386 16.4846C18.7385 16.7918 18.5384 17.3038 18.2383 17.9181C17.9381 18.5324 17.4379 19.4539 16.9377 20.4778C16.3375 21.5017 15.6372 22.9352 14.7368 24.6758C14.5367 25.0853 14.4367 25.2901 14.3366 25.4949C14.2366 25.6997 14.2366 25.802 14.1365 25.9044C14.0365 26.0068 13.9364 26.1092 13.9364 26.1092C13.8364 26.2116 13.6363 26.314 13.4362 26.4164C13.4362 26.4164 13.3362 26.4164 13.2361 26.4164C13.1361 26.4164 13.0361 26.4164 12.936 26.314C12.836 26.2116 12.6359 26.0068 12.5358 25.9044C12.4358 25.802 12.3358 25.5973 12.3358 25.3925C12.3358 25.1877 12.3358 25.0853 12.2357 24.9829C12.1357 24.9829 12.0356 24.8806 11.9356 24.7782C11.8356 24.6758 11.6355 24.5734 11.5354 24.2662C11.3353 24.0614 11.2353 23.6519 11.0352 23.0375C10.9352 22.5256 10.8351 22.0137 10.8351 21.5017C10.8351 20.9898 10.8351 20.4778 10.9352 20.0683C11.0352 19.5563 11.0352 19.1468 11.1352 18.7372C11.2353 18.3276 11.2353 17.9181 11.2353 17.6109C11.2353 17.5085 11.2353 17.4061 11.2353 17.3038C11.3353 17.2014 11.3353 17.2014 11.3353 17.099C11.3353 16.8942 11.4354 16.6894 11.4354 16.2799C11.5354 15.9727 11.5354 15.5631 11.6355 15.1536C11.7355 14.744 11.8356 14.3345 11.8356 14.0273C11.9356 13.7201 12.0356 13.413 12.0356 13.3106C12.1357 13.1058 12.2357 12.901 12.2357 12.6962C12.2357 12.4915 12.3358 12.2867 12.5358 12.0819C12.6359 11.9795 12.5358 11.9795 12.5358 11.8771C12.5358 11.7747 12.4358 11.6724 12.5358 11.57C12.6359 11.4676 12.6359 11.3652 12.7359 11.1604C12.7359 10.9556 12.836 10.8532 12.936 10.7509C13.0361 10.6485 13.1361 10.5461 13.1361 10.2389C13.1361 9.93174 13.2361 9.62457 13.4362 9.31741C13.6363 9.01024 13.7364 8.80546 13.8364 8.49829C14.0365 7.98635 14.2366 7.57679 14.3366 7.26962C14.4367 6.96246 14.4367 6.75768 14.5367 6.5529C14.5367 6.34812 14.6367 6.24573 14.6367 6.14334C14.6367 6.04095 14.7368 5.93857 14.8368 5.93857C14.9369 5.83618 15.0369 5.73379 14.9369 5.42662C14.8368 5.32423 14.8368 5.22184 14.9369 5.22184C15.137 5.01706 15.337 4.7099 15.337 4.40273C15.0369 4.40273 15.0369 4.09556 15.0369 3.78839C15.0369 3.68601 15.137 3.58362 15.137 3.48123C15.237 3.37884 15.237 3.27645 15.237 3.17406Z" fill="#FAE453"/>
<path d="M28.2423 22.0135C28.2423 22.2183 28.2423 22.423 28.2423 22.6278C28.2423 22.8326 28.2423 23.0374 28.2423 23.2421C28.2423 23.3445 28.2423 23.4469 28.2423 23.4469C28.4424 23.4469 28.5424 23.5493 28.7425 23.6517C28.8426 23.7541 29.0426 23.8565 29.2427 23.8565C29.843 23.7541 30.4432 23.6517 31.0435 23.4469C31.6438 23.2421 32.144 22.935 32.6442 22.5254C33.1444 22.1159 33.6446 21.7063 34.0448 21.2967C34.445 20.7848 34.8451 20.3752 35.2453 19.8633C36.0456 18.8394 36.6459 18.0203 36.946 17.5084C37.2462 16.9964 37.5463 16.6892 37.6463 16.4845C37.7464 16.2797 37.9465 16.0749 38.0465 15.9725C38.1465 15.8701 38.4467 15.6653 38.7468 15.3582C38.8468 15.2558 38.9469 15.2558 39.0469 15.2558C39.147 15.2558 39.247 15.2558 39.247 15.3582C39.4471 15.4606 39.5471 15.6653 39.4471 15.8701C39.247 16.5868 39.0469 17.0988 38.7468 17.6107C38.4467 18.1227 38.0465 18.6346 37.5463 19.249C37.3462 19.5561 37.0461 19.8633 36.7459 20.2729C36.4458 20.6824 36.1457 21.092 35.7455 21.6039C35.3453 22.0135 34.9452 22.5254 34.545 22.935C34.1448 23.3445 33.6446 23.7541 33.2444 24.1636C33.1444 24.266 32.8443 24.4708 32.5441 24.778C32.244 25.0851 31.8438 25.3923 31.4437 25.6995C31.0435 26.0066 30.6433 26.3138 30.2432 26.621C29.843 26.9282 29.4428 27.1329 29.0426 27.2353C28.3423 27.4401 27.8421 27.4401 27.542 27.4401C26.9417 27.4401 26.4415 27.3377 25.9413 27.1329C25.4411 26.9282 25.141 26.5186 24.8408 25.9043C24.7408 25.6995 24.6408 25.3923 24.6408 25.1875C24.5407 24.9828 24.5407 24.6756 24.5407 24.3684C24.5407 23.7541 24.4407 23.0374 24.4407 22.423C24.4407 21.8087 24.5407 21.092 24.7408 20.4776C24.8408 20.1705 24.9409 19.8633 25.0409 19.5561C25.141 19.249 25.241 18.8394 25.241 18.5322C25.3411 18.3275 25.3411 18.2251 25.4411 18.1227C25.5411 18.0203 25.6412 17.9179 25.6412 17.7131C25.7412 17.406 25.8413 17.2012 25.9413 16.9964C26.0414 16.7916 26.2414 16.5868 26.3415 16.2797C26.4415 16.1773 26.4415 16.0749 26.4415 15.9725C26.4415 15.8701 26.5416 15.7677 26.5416 15.6653C26.9417 15.051 27.3419 14.6415 27.8421 14.3343C28.3423 14.0271 28.9426 13.8223 29.5429 13.6176C29.7429 13.5152 29.943 13.5152 30.1431 13.5152C30.4432 13.5152 30.6433 13.6176 30.8434 13.72C31.7438 14.0271 32.4441 14.6415 33.0444 15.563C33.1444 15.7677 33.2444 16.0749 33.2444 16.2797C33.2444 16.4845 33.2444 16.7916 33.1444 16.9964C32.9443 18.0203 32.6442 18.8394 32.0439 19.5561C31.5437 20.2729 30.8434 20.8872 30.0431 21.3991C29.7429 21.5015 29.5429 21.6039 29.3428 21.6039C29.1427 21.6039 28.9426 21.6039 28.6425 21.6039C28.5424 21.6039 28.5424 21.6039 28.4424 21.6039C28.3423 21.6039 28.3423 21.6039 28.3423 21.6039C28.2423 21.6039 28.1423 21.6039 28.1423 21.7063C28.1423 21.8087 28.1423 21.9111 28.1423 22.1159V22.0135H28.2423ZM29.0426 19.5561C29.4428 19.5561 29.7429 19.4537 29.943 19.1466C30.3432 18.9418 30.6433 18.6346 31.0435 18.3275C31.3436 18.0203 31.6438 17.6107 31.8438 17.2012C31.9439 16.9964 32.0439 16.7916 31.9439 16.7916C31.9439 16.6892 31.7438 16.6892 31.5437 16.5868C31.2436 16.4845 30.9435 16.4845 30.6433 16.4845C30.3432 16.4845 30.1431 16.5868 29.943 16.6892C29.7429 16.7916 29.6429 16.894 29.5429 17.0988C29.4428 17.3036 29.3428 17.406 29.2427 17.6107C29.1427 17.8155 29.0426 18.0203 28.8426 18.1227C28.7425 18.2251 28.7425 18.2251 28.7425 18.3275C28.7425 18.4299 28.7425 18.5322 28.8426 18.5322C28.9426 18.6346 28.9426 18.737 28.9426 18.737C28.9426 18.737 28.8426 18.8394 28.7425 18.9418C28.5424 19.0442 28.5424 19.249 28.6425 19.4537C28.6425 19.5561 28.7425 19.5561 28.8426 19.5561H29.0426Z" fill="#FAE453"/>
</svg>
