<svg width="519" height="308" viewBox="0 0 519 308" fill="none" xmlns="http://www.w3.org/2000/svg">
<g opacity="0.5">
<path d="M231.328 212.625C231.998 211.417 232.575 210.144 233.352 209.01C239.301 200.332 243.265 190.645 247.369 181.025C247.864 179.865 247.837 178.853 247.162 177.687C244.439 172.985 240.257 171.202 235.082 171.162C230.391 171.125 228.094 174.18 226.231 177.862C225.894 178.527 225.447 179.136 225.116 179.804C220.949 188.202 213.662 194.571 210.32 203.596C208.749 207.838 207.282 211.99 206.826 216.479C206.456 220.13 205.669 223.736 203.746 226.778C198.362 235.29 195.928 244.955 192.793 254.351C192.518 255.175 191.89 256.302 192.699 257.074C193.535 257.872 194.533 257.046 195.395 256.775C201.798 254.754 205.769 250.298 208.678 244.308C211.207 239.102 212.614 233.266 217.158 229.073C222.486 224.159 226.766 218.259 231.328 212.625ZM253.204 139.093C256.721 130.672 263.493 124.204 266.675 115.577C266.97 114.779 267.345 113.995 267.793 113.275C268.646 111.902 269.717 110.126 271.46 110.92C273.106 111.669 273.246 113.776 272.891 115.483C272.523 117.253 272.044 119.077 271.197 120.648C269.674 123.477 268.194 126.304 267.372 129.423C266.141 134.092 263.958 138.287 261.347 142.341C263.68 136.48 269.199 133.121 272.245 127.831C274.721 123.531 279.083 120.87 282.112 116.998C283.161 115.657 284.19 116.706 284.506 118.13C285.07 120.672 283.974 122.926 282.562 124.67C281.123 126.449 279.672 128.392 277.603 129.608C275.426 130.888 274.751 133.274 273.563 135.26C269.345 142.309 265.23 149.42 261.018 156.471C259.2 159.514 256.801 162.114 254.352 164.643C252.677 166.371 252.092 167.794 253.688 170.205C256.428 174.342 255.788 179.164 254.967 183.678C252.188 198.971 245.443 212.196 235.085 223.819C230.352 229.13 225.596 234.455 220.968 239.874C218.184 243.135 217.194 247.458 215.246 251.224C211.323 258.809 205.875 264.26 197.989 267.434C193.245 269.344 189.256 268.183 186.742 263.6C184.495 259.503 183.508 255.25 185.113 250.607C188.664 240.337 191.426 229.827 196.891 220.237C200.62 213.694 202.28 206.139 203.935 198.718C205.027 193.822 207.726 189.599 210.534 185.633C214.169 180.499 217.37 175.124 220.358 169.628C222.867 165.014 226.691 162.838 231.651 162.413C235.402 162.092 238.091 160.727 239.246 156.843C239.755 155.131 240.778 153.562 241.671 151.987C243.543 148.685 244.68 145.205 245.027 141.368C245.81 132.693 248.236 124.354 250.384 115.968C251.263 112.534 250.996 108.918 252.113 105.524C252.484 104.401 252.627 103.159 253.535 102.357C254.883 101.167 256.281 101.026 257.149 102.935C257.861 104.499 258.302 106.114 258.06 107.928C257.125 114.942 255.708 121.848 254.083 128.725C253.306 132.016 252.934 135.407 252.379 138.752C252.654 138.866 252.929 138.98 253.204 139.093Z" fill="white"/>
<path d="M319.182 285.178C317.492 285.568 315.895 285.586 314.508 285.952C313.361 286.255 311.953 286.872 311.142 288.04C310.602 288.818 310.404 289.766 311.126 290.466C311.772 291.092 312.48 290.601 313.116 290.133C314.426 289.171 315.8 288.295 317.096 287.318C317.795 286.792 318.903 286.662 319.182 285.178ZM336.547 282.782C335.891 282.932 334.904 282.437 334.587 283.339C334.225 284.364 335.18 284.875 335.802 285.466C336.917 286.525 338.305 287.03 339.751 287.42C340.447 287.607 340.933 287.332 341.293 286.759C341.634 286.216 341.901 285.609 341.32 285.107C339.944 283.918 338.943 281.92 336.547 282.782ZM325.556 231.953C326.435 232.135 326.626 231.53 326.887 231.1C327.8 229.598 328.846 229.687 330.065 230.728C332.775 233.041 332.781 234.225 330.267 236.835C328.678 238.483 327.671 240.656 325.694 241.978C325.492 242.113 325.406 242.612 325.459 242.907C326.537 248.906 326.524 255.074 328.286 261.047C328.858 260.699 328.98 260.081 329.085 259.551C330.754 251.101 333.424 242.876 334.716 234.342C335.058 232.082 334.441 229.878 334.214 227.68C333.231 218.188 333.861 208.78 334.788 199.328C335.348 193.622 336.143 187.839 334.892 182.082C334.77 181.521 334.489 180.747 335.223 180.449C336.019 180.125 336.397 180.882 336.821 181.403C337.953 182.794 337.588 184.543 337.771 186.099C338.066 188.602 339.352 190.832 339.358 193.436C339.361 194.79 340.264 193.67 340.654 193.327C342.588 191.632 344.029 191.989 344.781 194.355C345.09 195.326 344.842 196.118 344.094 196.728C342.781 197.796 341.432 198.82 340.091 199.852C339.715 200.142 339.255 200.339 338.93 200.672C337.552 202.08 338.229 208.625 339.843 209.74C342.349 211.47 343.098 214.033 341.441 216.629C339.462 219.729 340.715 222.767 341.304 225.986C341.936 225.051 342.575 224.121 343.196 223.178C343.805 222.252 344.467 222.155 345.399 222.813C347.574 224.347 347.93 227.067 346.215 229.23C345.001 230.762 343.845 232.341 342.682 233.913C342.023 234.803 342.154 235.815 342.245 236.842C342.374 238.304 341.767 239.758 342.093 241.268C344.232 239.951 345.386 240.05 346.495 241.604C347.533 243.058 347.037 245.027 345.29 246.351C344.105 247.249 342.981 248.217 341.671 248.963C339.685 250.094 338.836 251.94 338.154 254.14C337.161 257.344 337.255 260.869 335.226 263.794C334.42 264.955 334.512 266.533 334.513 267.961C334.515 269.859 334.665 271.758 334.611 273.653C334.578 274.814 334.959 275.386 336.104 275.642C340.664 276.66 343.945 279.714 347.192 282.797C347.483 283.073 347.714 283.423 347.927 283.767C348.479 284.656 348.334 285.703 347.991 286.496C347.672 287.236 346.653 286.91 345.934 286.815C344.674 286.648 343.594 286.347 344.053 288.438C344.396 289.997 342.953 290.462 341.722 290.657C340.674 290.823 339.598 290.615 338.238 290.222C338.784 291.937 339.162 293.357 339.686 294.72C341.338 299.014 341.78 303.629 343.261 307.966C343.81 309.573 343.357 311.246 343.158 312.804C342.956 314.392 341.394 314.478 339.92 314.296C335.417 313.738 333.14 310.651 331.636 306.865C329.811 302.266 328.497 297.492 327.416 292.66C327.357 292.395 327.311 292.127 327.244 291.864C326.042 287.132 325.576 286.993 321.866 290.055C320.078 291.531 318.033 292.637 315.842 293.356C314.331 293.852 312.791 293.537 311.292 292.912C309.997 292.372 308.644 291.833 308.395 290.349C308.111 288.659 309.34 287.617 310.578 286.714C313.309 284.722 316.047 282.738 318.79 280.76C319.115 280.526 319.46 280.277 319.835 280.167C321.721 279.619 322.115 278.9 321.397 276.913C320.081 273.282 318.594 269.717 317.685 265.94C316.545 261.199 315.1 256.525 314.112 251.755C313.104 246.892 311.312 242.223 310.446 237.376C309.78 233.648 307.652 231.951 304.613 230.617C303.576 230.161 302.63 229.482 302.003 228.425C301.623 227.785 301.412 227.235 301.78 226.537C302.15 225.834 302.759 225.603 303.476 225.675C304.393 225.767 305.302 225.942 306.276 226.091C305.968 221.98 303.457 219.964 299.863 218.996C298.114 218.524 296.653 217.573 295.221 216.545C294.673 216.151 294.101 215.709 294.47 214.865C294.826 214.053 295.448 213.801 296.285 213.931C297.423 214.108 298.577 214.213 299.7 214.457C300.817 214.701 300.838 214.34 300.518 213.418C299.539 210.598 298.38 208.324 294.979 207.403C291.915 206.574 289.086 204.736 286.55 202.67C285.565 201.868 285.137 200.85 285.944 199.638C286.767 198.402 287.738 199.076 288.629 199.483C290.232 200.215 291.795 201.032 293.39 201.78C293.672 201.913 294.12 202.031 294.335 201.9C294.765 201.636 294.534 201.164 294.368 200.81C292.731 197.317 291.694 193.543 289.534 190.299C288.915 189.369 288.639 188.323 288.242 187.318C287.934 186.538 288.131 185.798 288.895 185.386C289.677 184.966 290.214 185.525 290.586 186.095C291.474 187.456 292.343 188.835 293.116 190.264C293.72 191.382 294.249 191.475 295.019 190.446C295.879 189.297 296.626 188.116 296.962 186.686C297.094 186.119 297.328 185.389 298.06 185.388C298.741 185.387 299.03 186.076 299.332 186.591C299.82 187.422 299.75 188.329 299.328 189.137C298.107 191.472 298.045 194.118 297.426 196.598C296.833 198.974 298.44 201.117 299.7 203.12C300.036 203.655 300.508 203.393 300.845 202.935C301.568 201.952 302.322 200.991 303.038 200.003C303.359 199.559 303.627 199.002 304.279 199.156C304.965 199.319 305.169 199.947 305.288 200.56C305.505 201.674 304.914 202.586 304.32 203.375C301.437 207.204 302.267 208.146 304.558 212.158C306.054 214.778 307.929 217.181 309.635 219.681C309.859 220.01 310.011 220.484 310.488 220.448C310.99 220.41 310.985 219.89 311.141 219.534C311.951 217.699 312.618 217.641 313.926 219.182C315 220.446 315.338 221.981 314.809 223.384C313.494 226.87 314.868 230.088 315.77 233.218C318.231 241.758 320.212 250.404 322.173 259.064C323.006 262.748 323.674 266.491 325.339 269.973C325.201 268.49 325.085 267.004 324.921 265.524C324.749 263.969 323.7 262.714 323.565 261.086C322.91 253.187 320.895 245.475 320.245 237.573C320.079 235.564 320.324 233.562 319.294 231.622C318.858 230.801 319.472 229.486 319.314 228.441C318.371 222.203 317.337 215.98 316.347 209.748C316.19 208.759 315.494 208.253 314.744 207.766C313.836 207.176 312.908 206.614 312.04 205.97C311.128 205.295 310.372 204.492 311.013 203.219C311.688 201.876 312.829 202.488 313.869 202.506C314.565 202.519 315.271 204.161 315.759 202.814C316.128 201.795 315.964 200.31 314.378 199.853C311.666 199.072 310.115 196.84 308.322 194.931C307.717 194.286 308.08 193.488 308.42 192.829C308.776 192.141 309.458 192.339 310.057 192.43C312.093 192.74 313.344 194.407 315.22 195.577C315.534 193.217 314.652 191.059 315.258 188.943C315.592 187.778 315.261 185.776 316.843 185.921C318.412 186.064 317.825 187.932 317.88 189.182C318.015 192.294 318.083 195.425 318.505 198.503C319.099 202.839 318.755 207.295 320.289 211.55C321.088 209.077 321.17 206.499 321.189 203.935C321.225 199.041 321.612 194.181 322.434 189.361C322.596 188.408 322.666 186.885 323.748 186.899C324.953 186.915 325.408 188.351 325.571 189.505C326.087 193.15 326.048 196.816 325.838 200.483C325.487 206.648 325.171 212.816 324.754 218.977C324.662 220.335 324.953 221.239 326.096 222.084C327.75 223.308 328.221 225.134 326.977 226.502C325.427 228.206 326.005 230.131 325.556 231.953Z" fill="white"/>
<path d="M380.107 149.667C379.451 145.851 371.969 129.592 370.67 129.126C373.478 136.224 376.433 143.108 380.107 149.667ZM470.519 242.852C470.656 242.791 470.792 242.731 470.929 242.672C470.427 241.095 471.374 239.658 471.165 238.021C470.842 235.499 470.357 233.055 469.703 230.601C468.697 226.826 467.036 223.325 464.729 220.321C462.862 217.887 460.153 216.118 457.706 214.168C453.393 210.73 448.597 209.709 443.279 210.513C443.062 210.545 442.765 210.666 442.68 210.834C442.502 211.186 442.794 211.382 443.088 211.493C444.514 212.032 445.477 213.255 446.822 213.96C449.193 215.202 450.813 217.44 452.715 219.241C457.094 223.387 460.818 228.171 464.132 233.253C466.231 236.472 468.388 239.653 470.519 242.852ZM461.48 262.611C463.641 259.121 465.756 255.814 467.742 252.43C468.263 251.543 468.062 250.516 467.591 249.48C466.171 246.362 463.961 243.774 462.155 240.92C460.503 238.308 459.004 235.514 456.925 233.286C454.669 230.869 452.391 228.448 450.149 226.016C446.857 222.444 442.613 220.432 438.501 218.163C438.284 218.044 438.035 218.072 437.892 218.379C437.817 218.892 438.311 219.051 438.566 219.36C441.499 222.932 444.938 226.098 447.436 230.007C449.259 232.858 451.16 235.652 453.128 238.389C457.436 244.38 460.419 250.841 461.284 258.29C461.447 259.693 460.491 261.035 461.48 262.611ZM405.128 205.127C405.185 206.299 405.619 206.901 405.809 207.569C406.598 210.344 406.579 213.291 407.766 215.988C409.06 218.93 408.486 222.076 408.317 225.149C408.124 228.658 408.006 232.232 406.861 235.556C405.186 240.415 406.007 245.066 407.32 249.737C407.708 251.122 408.074 252.682 408.962 253.719C410.824 255.893 411.981 258.506 413.877 260.696C416.918 264.208 420.293 267.286 424.299 269.387C429.319 272.019 434.682 273.939 440.585 273.372C441.675 273.268 442.804 273.564 444.091 272.937C443.608 272.674 443.367 272.512 443.102 272.403C439.241 270.815 434.949 270.011 432.362 266.169C431.031 264.193 428.631 263.279 427.317 261.277C424.678 257.256 421.845 253.383 419.522 249.128C417.077 244.649 414.74 240.295 413.548 235.19C411.899 228.128 411.339 220.792 408.566 214.004C407.418 211.197 407.259 208.008 405.128 205.127ZM418.739 212.211C419.339 217.599 420.628 222.562 421.407 227.622C421.895 230.795 422.05 234.1 423.396 237.024C425.202 240.948 426.558 245.057 428.999 248.738C431.165 252.005 432.829 255.549 436.134 257.929C437.288 258.76 438.132 260.021 439.139 261.064C441.003 262.993 443.362 263.982 445.873 264.768C448.231 265.507 450.546 266.333 453.075 266.144C453.484 266.114 454.1 266.283 454.016 265.657C453.683 263.154 454.02 260.579 453.344 258.127C452.593 255.397 451.599 252.784 450.193 250.275C446.761 244.151 443.806 237.736 438.955 232.529C435.693 229.029 433.124 224.972 429.461 221.742C425.919 218.619 422.478 215.37 418.739 212.211ZM370.865 128.264C370.742 126.317 369.807 124.952 369.321 123.464C367.571 118.106 364.82 113.156 362.912 107.88C360.562 101.386 358.388 94.806 357.124 87.9714C356.981 87.199 356.671 86.4593 356.489 85.6924C356.252 84.6979 356.654 84.0383 357.624 83.7229C358.593 83.4083 359.049 83.8774 359.397 84.7436C360.919 88.5177 362.841 92.1698 363.953 96.0607C365.632 101.935 369.152 106.888 371.331 112.484C373.016 116.813 374.948 121.036 376.591 125.391C377.391 127.511 378.885 129.528 380.047 131.606C381.757 134.659 383.542 137.703 385.041 140.834C386.619 144.132 388.53 147.262 389.876 150.706C391.091 153.815 393.067 156.618 394.648 159.588C395.268 160.753 395.81 161.976 396.235 163.226C396.538 164.118 397.042 164.799 397.799 165.378C396.941 163.168 396.231 160.884 395.197 158.762C392.386 152.99 389.482 147.261 386.531 141.559C383.622 135.942 381.091 130.146 378.469 124.395C377.351 121.943 376.666 119.29 375.78 116.73C374.535 113.133 372.515 109.862 371.258 106.295C369.88 102.385 368.01 98.6639 367.082 94.57C366.058 90.0518 364.674 85.6187 363.55 81.1216C363.218 79.7904 363.357 78.3752 363.393 76.9808C363.424 75.7895 364.519 75.9765 364.966 75.2986C365.641 74.2702 368.088 74.695 369.23 75.4017C372.06 77.1546 372.794 80.0262 373.613 82.9422C375.929 91.1759 378.052 99.4666 381.873 107.197C384.197 111.9 385.772 116.934 387.53 121.882C388.265 123.951 389.513 125.828 390.335 127.871C392.118 132.3 394.54 136.4 396.666 140.651C398.929 145.175 401.312 149.668 403.345 154.273C405.896 160.051 409.289 165.352 411.877 171.097C413.529 174.761 415.974 178.056 417.972 181.568C419.632 184.486 421.048 187.548 422.778 190.421C424.718 193.643 426.328 197.087 429.495 199.476C432.156 201.483 435.005 201.053 437.831 200.659C444.046 199.793 450.221 199.614 456.282 201.382C458.262 201.96 460.215 202.765 461.921 204.115C464.826 206.415 468.018 208.357 470.591 211.07C472.588 213.177 474.114 215.614 475.443 218.203C477.05 221.333 478.44 224.521 479.166 227.999C480.186 232.883 480.943 237.739 480.04 242.772C479.572 245.375 479.241 248.002 478.734 250.607C478.371 252.473 477.408 253.996 476.552 255.541C474.084 259.995 471.707 264.56 468.702 268.64C465.066 273.577 460.625 277.848 455.026 280.608C451.483 282.354 447.682 282.874 443.757 283.251C439.454 283.665 435.326 283.256 431.204 282.296C428.795 281.735 426.607 280.499 424.301 279.632C422.219 278.85 420.427 277.539 418.344 276.768C417.079 276.299 415.935 275.424 414.834 274.599C411.001 271.728 407.163 268.947 404.591 264.637C403.389 262.624 401.698 260.836 400.7 258.656C398.419 253.673 397.223 248.497 396.858 242.928C396.577 238.633 398.612 235.159 399.21 231.244C399.601 228.677 400.373 226.084 400.236 223.544C400.092 220.875 399.138 218.237 398.412 215.621C397.619 212.76 396.485 210.036 395.314 207.296C394.084 204.416 393.232 201.254 392.53 198.135C392.356 197.366 391.945 196.888 391.646 196.269C390.148 193.165 388.312 190.199 386.966 187.073C385.792 184.344 383.976 181.914 383.324 178.852C383.009 177.375 381.609 175.938 380.984 174.318C380.246 172.41 379.102 170.67 378.3 168.845C376.971 165.82 375.108 163.124 373.72 160.148C371.839 156.12 370.006 152.069 368.121 148.044C365.596 142.657 363.695 137.01 361.415 131.521C360.162 128.504 359.039 125.334 357.838 122.288C356.613 119.179 355.122 116.101 353.759 113.005C352.124 109.288 351.122 105.343 349.773 101.526C348.799 98.7746 347.289 96.2192 346.055 93.5589C344.915 91.1034 344.818 88.4702 345.041 85.8387C345.133 84.749 346.271 84.483 347.121 84.2464C347.961 84.0124 348.744 83.4501 349.801 84.2928C351.269 85.4634 351.72 86.9178 352.265 88.5972C353.014 90.906 354.306 93.0375 355.398 95.2286C357.697 99.8398 359.226 104.755 361.053 109.555C362.384 113.049 363.628 116.712 365.716 119.734C367.548 122.385 368.458 125.481 370.865 128.264Z" fill="white"/>
<path d="M20.1169 288.662C26.1031 301.453 34.2611 310.401 47.7342 313.455C58.9612 315.999 69.9935 318.711 81.6363 314.859C90.6453 311.878 99.3811 308.265 106.996 302.855C116.227 296.296 123.321 287.319 129.844 278.085C131.984 275.054 133.447 271.508 133.5 267.455C133.551 263.563 134.225 259.657 134.868 255.797C136.192 247.846 135.63 239.983 133.505 232.307C131.489 225.029 127.511 218.564 124.027 211.921C121.17 206.474 116.772 202.975 110.663 201.641C108.294 201.122 105.912 200.419 103.713 199.414C96.3975 196.069 89.0044 194.235 80.7289 194.57C68.8515 195.051 57.4184 196.794 46.4003 201.311C42.7558 202.806 40.6155 206.256 37.1235 207.904C34.4095 209.185 32.0739 211.124 30.1895 213.384C23.0275 221.978 17.3245 231.404 13.7904 242.128C10.7659 251.305 9.30198 260.576 12.4626 269.845C14.7412 276.527 16.3785 283.554 20.1169 288.662ZM39.3755 193.602C43.026 191.59 45.7103 190.109 48.7889 189.551C56.3773 188.176 63.8494 186.169 71.5441 185.377C82.6132 184.237 93.1651 185.904 103.281 190.694C106.977 192.443 110.952 193.63 114.866 194.929C122.222 197.37 128.036 201.534 131.888 209.024C134.651 214.397 137.341 219.931 140.487 225.186C143.674 230.506 144.076 236.921 145.011 243.119C146.342 251.95 143.612 260.271 143.115 268.845C142.63 277.202 137.912 283.778 132.735 289.864C128.225 295.165 123.283 300.107 118.395 305.073C114.413 309.12 109.439 311.776 104.443 314.342C98.7064 317.288 92.7357 319.68 86.715 321.982C77.4893 325.509 68.1086 326.064 58.3828 324.674C51.121 323.636 43.8835 322.62 37.0303 319.972C29.1116 316.912 22.3065 312.364 17.381 305.134C13.133 298.897 9.33109 292.447 6.46151 285.495C2.31216 275.444 -1.04617 265.101 0.302508 254.04C1.30021 245.855 3.54562 237.956 6.93839 230.314C9.79252 223.884 13.0671 217.803 17.2153 212.159C20.8717 207.184 25.7242 203.54 30.5619 199.817C33.7159 197.391 36.4703 194.449 39.3755 193.602Z" fill="white"/>
<path d="M72.9782 271.495C74.3767 274.295 72.398 276.993 68.9482 276.702C64.7614 276.349 60.8526 274.969 57.7959 271.918C56.4372 270.562 55.9722 268.757 56.9069 266.966C57.9462 264.975 59.7331 265.686 61.0782 266.393C64.2905 268.082 67.6927 269.137 71.1835 269.993C72.0636 270.208 72.724 270.681 72.9782 271.495Z" fill="white"/>
<path d="M86.821 252.766C82.3028 254.831 80.1352 253.425 80.4666 248.856C80.6412 246.446 81.1317 244.038 81.7119 241.686C82.0035 240.506 82.598 239.134 84.2181 239.231C85.7009 239.319 86.7004 240.054 87.163 241.639C87.9036 244.177 88.9191 246.62 88.6952 249.364C88.5622 251.004 87.8264 252.141 86.821 252.766Z" fill="white"/>
<path d="M78.5729 262.762C75.3743 264.299 72.9318 262.573 70.8425 260.63C68.843 258.77 68.8109 256.059 69.2498 253.514C69.4475 252.369 70.4571 251.853 71.7197 252.154C75.0471 252.946 77.5936 255.081 79.8628 257.391C81.3504 258.905 80.3646 261.98 78.5729 262.762Z" fill="white"/>
<path d="M62.481 253.429C60.7927 253.827 58.416 254.671 57.1629 252.878C55.9734 251.177 56.3582 248.866 57.9593 247.033C60.3182 244.333 62.8356 243.574 65.4581 244.956C68.3283 246.469 68.5533 249.26 65.9177 251.227C64.9052 251.983 63.7881 252.598 62.481 253.429Z" fill="white"/>
<path d="M55.3112 241.341C55.2839 242.576 55.3569 243.743 55.2114 244.88C54.9216 247.147 53.6217 248.988 52.5301 250.928C51.5021 252.755 49.9498 253.671 48.0666 253.045C46.0053 252.359 46.2856 250.204 46.6158 248.669C47.2981 245.495 49.1498 242.862 51.59 240.74C52.9001 239.601 54.1086 240.359 55.3112 241.341Z" fill="white"/>
<path d="M55.4463 263.268C52.6753 264.574 49.8289 264.17 47.0217 263.56C45.281 263.182 45.2887 261.476 45.2205 260.197C45.1355 258.603 46.1273 257.454 47.6381 256.808C49.8075 255.88 54.714 256.687 56.4024 258.277C57.9411 259.727 57.4452 262.339 55.4463 263.268Z" fill="white"/>
<path d="M70.7152 239.623C69.0732 240.355 67.3492 240.798 65.5503 240.871C64.1345 240.929 62.6689 240.832 62.3589 239.064C62.0792 237.469 62.1665 235.871 63.8038 234.896C65.5866 233.836 67.579 233.512 69.5797 233.695C71.2247 233.847 73.0812 234.116 73.4084 236.253C73.7119 238.237 72.2379 238.991 70.7152 239.623Z" fill="white"/>
<path d="M83.9705 271.524C82.2649 272.499 80.8782 273.735 79.586 272.24C78.2842 270.734 78.403 268.859 79.7101 267.294C80.652 266.166 81.7684 265.179 82.8386 264.162C83.7959 263.251 84.9243 262.461 86.2231 263.276C87.5616 264.117 88.181 265.461 87.8479 267.102C87.3544 269.534 85.7004 270.893 83.9705 271.524Z" fill="white"/>
<path d="M77.2146 244.958C77.606 246.274 78.3982 247.844 76.4729 248.917C74.6509 249.932 70.5188 248.881 69.7325 247.047C68.9474 245.213 68.9296 243.273 70.9784 242.091C72.51 241.208 76.0714 242.839 77.2146 244.958Z" fill="white"/>
<path d="M67.4935 260.24C68.5559 262.334 68.4104 263.854 66.608 264.65C64.0021 265.8 62.6909 264.19 61.8387 262.005C61.2377 260.467 60.1331 258.765 62.1902 257.53C63.8186 256.553 66.4993 258.171 67.4935 260.24Z" fill="white"/>
<path d="M80.5517 238.384C79.4162 238.733 78.5094 238.436 78.1869 237.38C77.7683 236.008 78.3894 234.859 79.6081 234.205C80.5933 233.677 81.5512 233.967 81.8113 235.149C82.1005 236.465 81.7317 237.643 80.5517 238.384Z" fill="white"/>
<path d="M210.51 83.7129C209.244 81.4493 208.084 79.1174 206.685 76.9399C205.025 74.3556 198.383 71.5597 196.284 72.3823C192.427 73.8923 187.088 81.4921 187.063 85.7858C186.979 99.8188 195.354 104.508 207.647 105.97C212.192 106.511 214.098 103.91 214.402 99.1797C214.762 93.5763 211.889 88.8534 210.51 83.7129ZM170.979 69.9505C169.883 66.8099 168.282 64.4817 168.296 61.6027C168.321 56.7411 171.107 54.6218 175.756 56.0247C180.388 57.4227 183.55 60.7421 186.311 64.4294C187.554 66.0896 188.373 66.9297 190.723 66.0794C200.594 62.5083 211.672 65.6998 217.504 74.5477C222.481 82.0981 226.309 90.3571 224.148 100.017C223.302 103.795 221.425 106.691 218.096 108.829C207.509 115.63 197.044 114.045 186.857 108.346C178.221 103.514 175.168 95.4215 175.555 85.8763C175.645 83.6633 174.814 83.2374 172.963 83.2573C170.743 83.2818 168.815 82.3252 166.989 81.1611C164.778 79.7512 162.296 78.3546 162.893 75.1923C163.482 72.0741 165.912 70.7623 168.844 70.2726C169.429 70.1744 170.018 70.0945 170.979 69.9505Z" fill="white"/>
<path d="M232.071 59.9068C237.334 56.0111 242.971 52.5462 247.482 47.6815C248.714 46.353 250.025 44.7817 250.47 43.1039C251.254 40.1457 253.146 36.6784 250.54 34.0496C247.267 30.7472 240.864 31.2644 236.987 34.0942C228.857 40.0278 229.238 49.2577 227.766 57.6727C227.278 60.4596 229.415 61.3662 232.071 59.9068ZM241.816 22.571C239.857 19.8627 238.269 17.5777 238.857 14.6171C239.179 12.992 238.971 10.9879 240.88 10.2862C242.777 9.58918 244.806 10.3266 245.864 11.7992C248.438 15.3842 250.993 16.5197 255.71 15.1718C259.186 14.1773 262.066 17.8234 263.426 21.1688C264.69 24.2793 262.841 26.4261 259.944 27.6675C257.533 28.6994 257.513 29.5209 259.031 31.9802C262.421 37.4708 261.736 43.9239 258.762 49.0978C253.911 57.5394 245.701 62.8728 237.226 67.1552C230.449 70.579 221.703 67.9752 218.3 62.625C217.575 61.4847 216.919 60.1794 216.682 58.8666C214.985 49.4983 218.863 30.6442 230.294 24.3072C233.915 22.3002 237.39 23.2483 241.816 22.571Z" fill="white"/>
<path d="M502.641 50.4471C501.585 54.2775 499.814 57.7101 497.459 60.8407C496.852 61.632 496.29 62.5012 495.51 63.6081C493.967 66.0111 491.977 68.4824 490.021 70.9776C488.692 72.6529 486.925 73.9584 485.29 75.3608C478.372 81.2249 473.69 83.1487 465.047 86.4435C457.048 89.4623 447.927 88.702 439.422 85.088C437.739 84.3687 436.064 83.5673 434.339 82.9062C432.279 82.0852 430.724 80.6186 429.169 79.1519C428.205 78.2578 427.265 75.6688 426.416 74.6831C424.707 72.6576 423.553 72.0037 422.928 69.4978C421.517 64.0106 419.522 59.5186 419.604 54.0313C419.68 47.5638 420.379 42.9118 422.606 37.0667C424.207 32.8868 425.984 28.5267 428.478 25.056C431.035 21.4974 434.388 20.6336 437.102 15.7705C441.654 7.61223 447.145 9.86241 452.789 8.42253C455.637 7.69962 458.639 7.88927 461.613 7.83636C470.449 7.65861 479.108 9.56873 487.724 12.6007C491.202 13.8105 494.15 15.9138 497.164 18.0647C500.015 20.0955 500.463 22.3772 500.689 25.5186C500.843 27.9851 501.508 30.4327 502.087 32.8606C503.449 38.8425 504.2 44.7708 502.641 50.4471ZM509.604 34.3237C508.945 30.9493 508.233 27.5791 507.851 24.2338C507.676 22.5056 509.248 18.126 505.73 14.7123C502.089 11.1186 496.564 8.15739 492.005 6.01006C484.331 2.34734 476.382 1.05431 468.379 0.120354C465.566 -0.196518 462.889 0.210716 460.096 0.220825C454.966 0.224388 450.17 1.09652 445.731 3.29974C440.494 5.9304 435.476 5.92505 431.532 10.1829C428.198 13.7849 425.17 19.8738 421.887 24.5341C420.337 26.311 418.402 26.8538 417.291 29.8447C414.918 36.1125 412.874 46.5198 413.026 53.5112C413.112 58.546 415.087 64.6289 416.262 69.6744C416.841 72.1024 417.581 74.5154 418.913 76.793C420.763 80.0324 423.281 82.7463 426.143 85.1849C427.649 86.4375 429.147 87.7734 430.908 88.5944C434.01 90.0562 437.119 91.4361 440.282 92.8112C449.081 96.6439 457.791 97.7045 466.085 94.5507C475.71 90.92 483.608 85.7854 491.243 79.2566C493.244 77.548 495.263 75.8102 496.835 73.6498C497.791 72.3633 498.715 71.0525 499.715 69.8438C502.438 66.5426 505.793 63.2657 507.658 59.4163C509.584 55.479 510.65 51.211 510.84 46.5597C510.992 42.457 510.368 38.3978 509.604 34.3237Z" fill="white"/>
<path d="M440.171 33.1608C438.51 32.2376 438.041 33.0806 437.326 34.184C435.976 36.0965 436.494 39.9702 438.361 42.372C439.059 43.2441 439.715 43.5539 440.575 43.3981C441.783 43.1906 442.13 42.3441 442.005 41.1919C441.86 39.8912 441.94 38.7147 442.349 37.6927C442.94 36.1452 441.34 33.8077 440.171 33.1608Z" fill="white"/>
<path d="M460.159 22.7187C460.44 21.4649 460.572 20.3419 459.319 18.6862C458.802 18.0049 457.305 17.2969 456.548 17.5632C455.285 18.0073 454.516 18.9573 454.235 20.2111C453.682 22.5368 454.389 23.9577 455.919 26.4141C456.397 27.1929 457.05 27.7244 457.964 27.8837C459.816 28.1727 460.911 27.0497 460.455 25.2971C460.188 24.3911 459.96 23.5148 460.159 22.7187Z" fill="white"/>
<path d="M438.631 57.8082C438.807 57.1019 438.619 56.3469 438.483 55.7964C438.229 54.7566 437.064 53.8452 436.735 53.652C434.743 52.4297 433.073 54.0474 433.052 56.1352C433.038 58.3777 432.989 59.6041 434.53 61.5446C435.926 63.2776 437.241 63.859 439.448 63.7894C441.292 63.7312 441.447 62.3941 439.804 60.9281C438.841 60.0649 438.311 59.0941 438.631 57.8082Z" fill="white"/>
<path d="M458.851 40.4516C459.082 39.2626 458.028 37.7359 456.426 36.8994C455.085 36.2122 453.793 36.8334 453.603 37.8774C453.394 38.9505 453.345 40.0544 453.496 41.2197C453.707 42.4729 454.16 43.729 455.055 44.9632C455.512 45.6089 457.102 46.4733 457.685 46.3359C459.076 46.0072 458.898 44.6095 458.91 43.1268C458.874 42.5739 458.787 40.9735 458.851 40.4516Z" fill="white"/>
<path d="M476.319 17.2916C474.939 17.1822 474.063 18.0561 473.675 19.1048C473.315 20.0405 473.11 20.6666 473.14 21.7586C473.146 23.0992 473.829 24.2657 474.697 25.4469C475.118 25.9826 475.836 26.2079 476.351 25.8328C477.243 25.2044 477.392 24.2425 477.574 23.1308C477.748 22.4584 477.909 21.8805 478.148 21.2563C478.657 19.8961 478.818 18.8379 477.865 17.8629C477.545 17.5365 476.778 17.3278 476.319 17.2916Z" fill="white"/>
</g>
</svg>
