<svg width="157" height="42" viewBox="0 0 157 42" fill="none" xmlns="http://www.w3.org/2000/svg">
<path d="M122.2 4.37934C121.923 4.37934 121.45 4.95242 120.781 6.09506C120.109 7.24122 119.349 8.68076 118.501 10.4168C117.654 12.1529 116.775 14.0374 115.867 16.0683C114.96 18.1013 114.122 19.9949 113.352 21.7496C112.583 23.5061 111.931 24.9751 111.399 26.1584C110.867 27.3418 110.579 27.9556 110.542 27.9931C109.91 28.5065 109.357 29.3656 108.884 30.5676C108.411 31.7727 108.016 33.0045 107.701 34.2675C107.383 35.5305 107.148 36.6753 106.99 37.699C106.833 38.7248 106.714 39.3368 106.636 39.5351C106.517 39.9674 106.319 40.3327 106.044 40.6293C105.766 40.9244 105.569 41.2697 105.451 41.6645C105.412 41.7832 105.334 41.8425 105.215 41.8425C105.135 41.8425 105.076 41.8333 105.037 41.8126C104.998 41.7926 104.957 41.7832 104.919 41.7832C104.564 41.7035 104.318 41.5663 104.178 41.3698C104.041 41.1711 103.913 40.9244 103.794 40.6293C103.676 40.3327 103.548 40.0173 103.411 39.6818C103.271 39.3459 103.045 39.0013 102.73 38.6468C102.572 38.4893 102.463 38.3019 102.403 38.0846C102.344 37.8678 102.296 37.66 102.255 37.4635C102.177 36.6753 102.099 35.8941 102.019 35.1245C101.94 34.3567 101.98 33.5776 102.138 32.7876C102.335 31.9194 102.403 31.1014 102.344 30.3318C102.285 29.5618 102.355 29.0389 102.552 28.7627C102.631 28.6069 102.671 28.4676 102.671 28.349C102.591 27.7183 102.621 27.1063 102.759 26.5146C102.897 25.923 102.986 25.3109 103.025 24.6803C103.105 24.0497 103.192 23.5748 103.292 23.2593C103.39 22.9439 103.44 22.7473 103.44 22.6677C103.477 21.9574 103.617 21.2562 103.854 20.5663C104.091 19.8763 104.247 19.1752 104.327 18.4649C104.366 18.0715 104.464 17.7061 104.624 17.3706C104.779 17.0348 104.898 16.6712 104.978 16.2761C105.097 15.6844 105.215 15.1018 105.334 14.5288C105.451 13.9574 105.609 13.4159 105.807 12.9022C106.122 12.2308 106.33 11.5409 106.429 10.8302C106.527 10.12 106.714 9.43001 106.99 8.75867C107.306 8.04837 107.561 7.31913 107.76 6.56988C107.957 5.82063 108.173 5.08963 108.411 4.37934C108.53 3.94558 108.667 3.54095 108.825 3.16615C108.982 2.7917 109.121 2.40778 109.24 2.01262C109.318 1.69748 109.476 1.48026 109.713 1.36164C109.949 1.24302 110.147 1.0851 110.305 0.886822C110.423 0.769958 110.502 0.749607 110.542 0.829269C110.739 1.02579 110.995 1.14476 111.31 1.18371C111.625 1.22231 111.844 1.40059 111.961 1.71608C111.961 1.87365 112.02 1.95332 112.139 1.95332C112.573 1.99227 112.79 2.16107 112.79 2.45621C112.79 2.75275 112.868 2.99945 113.028 3.19598C112.909 3.23493 112.849 3.3146 112.849 3.43356C112.849 3.55043 112.868 3.65992 112.909 3.75783C112.948 3.85644 112.957 3.95646 112.938 4.05472C112.918 4.15298 112.829 4.24212 112.672 4.32003C112.592 4.32003 112.553 4.33126 112.553 4.34986C112.553 4.37021 112.592 4.37934 112.672 4.37934C112.987 4.65587 113.087 4.95242 112.968 5.26791C112.849 5.58305 112.77 5.87994 112.731 6.15437C112.651 6.66814 112.612 7.18191 112.612 7.69393C112.612 8.2077 112.532 8.74007 112.377 9.29104C112.217 9.84552 112.13 10.3965 112.11 10.9492C112.089 11.5019 111.982 12.0547 111.785 12.6053C111.705 12.765 111.666 12.9113 111.666 13.0506V13.583C111.666 13.7999 111.636 14.1059 111.577 14.4993C111.518 14.8941 111.39 15.4675 111.193 16.2168C111.114 16.5319 111.093 16.8379 111.134 17.1331C111.173 17.4299 111.23 17.736 111.31 18.0511C112.178 16.3929 112.829 15.1018 113.263 14.1747C113.697 13.2471 114.063 12.4884 114.359 11.895C114.654 11.3033 114.931 10.8008 115.187 10.387C115.443 9.97186 115.808 9.48932 116.283 8.93659C116.598 8.54354 116.834 8.16699 116.993 7.81254C117.149 7.4567 117.348 7.04294 117.585 6.56988C117.82 6.09506 118.177 5.51461 118.65 4.82257C119.122 4.13263 119.833 3.23494 120.781 2.13124C120.859 2.05158 120.918 1.98279 120.957 1.92348C120.996 1.86418 120.996 1.77539 120.957 1.65642C120.918 1.57887 120.84 1.53781 120.722 1.53781C120.564 1.53781 120.445 1.51921 120.365 1.48025C120.681 1.0851 121.037 0.749607 121.432 0.473068C121.825 0.198635 122.298 0.0393066 122.851 3.8147e-06C124.153 3.8147e-06 124.863 0.630989 124.982 1.894C125.101 2.64326 125.19 3.17562 125.249 3.49112C125.308 3.80836 125.356 4.02524 125.397 4.1421C125.435 4.26072 125.464 4.34986 125.484 4.40916C125.505 4.46848 125.514 4.59657 125.514 4.79309C125.514 5.89854 125.535 6.72745 125.574 7.28053C125.613 7.8329 125.642 8.32456 125.662 8.75867C125.683 9.19453 125.672 9.66724 125.633 10.1793C125.594 10.693 125.494 11.463 125.338 12.4884C125.062 14.0669 124.833 15.2503 124.657 16.0388C124.479 16.8288 124.331 17.4001 124.212 17.7542C124.095 18.1104 124.006 18.3459 123.947 18.4649C123.888 18.5835 123.858 18.7614 123.858 18.9969C123.858 19.4717 123.76 19.9244 123.561 20.3585C123.364 20.7944 123.285 21.2467 123.325 21.7198C123.127 21.9574 123.058 22.2227 123.118 22.5192C123.177 22.8161 123.109 23.1018 122.91 23.378C123.068 23.378 123.187 23.3281 123.266 23.2295C123.344 23.1316 123.493 22.8737 123.71 22.4599C123.927 22.0465 124.242 21.3952 124.657 20.507C125.071 19.6184 125.692 18.4052 126.521 16.8677C126.718 16.4336 127.063 15.7714 127.556 14.885C128.05 13.9964 128.593 13.1008 129.185 12.1919C129.777 11.2847 130.368 10.4853 130.96 9.79533C131.551 9.10539 132.084 8.75867 132.557 8.75867C132.755 8.79938 132.913 8.77902 133.032 8.69936C133.15 8.6211 133.288 8.56179 133.445 8.52319C133.564 8.71972 133.642 8.94607 133.683 9.20366C133.722 9.45984 133.761 9.7269 133.8 10.0013C133.838 10.2779 133.879 10.5263 133.918 10.7415C133.957 10.9583 134.057 11.1271 134.215 11.244C134.334 11.3237 134.352 11.4423 134.274 11.6002C134.195 11.7578 134.215 11.895 134.334 12.0136C134.49 12.1715 134.688 12.2214 134.926 12.162C135.161 12.1027 135.319 12.3105 135.398 12.7836C135.595 13.4549 135.725 14.1245 135.782 14.7958C135.842 15.4675 135.812 16.1367 135.695 16.8084C135.616 17.2815 135.606 17.7654 135.665 18.2589C135.725 18.7523 135.655 19.2159 135.458 19.6482C135.417 19.7279 135.408 19.8075 135.428 19.8854C135.446 19.9655 135.417 20.043 135.339 20.123C135.14 20.4382 135.033 20.7831 135.014 21.1579C134.994 21.5324 134.964 21.8981 134.926 22.2522C134.885 22.688 134.777 23.1499 134.599 23.6433C134.423 24.1367 134.334 24.4038 134.334 24.4427C134.373 24.8379 134.343 25.2127 134.245 25.5668C134.144 25.923 134.017 26.277 133.859 26.6332C133.662 27.1453 133.603 27.4716 133.683 27.6089C133.761 27.7478 133.742 27.9356 133.623 28.1707C133.386 28.7238 133.188 29.2951 133.032 29.8885C132.872 30.4802 132.755 31.0719 132.676 31.6636C132.637 31.8211 132.566 32.1272 132.47 32.5799C132.369 33.0343 132.251 33.507 132.114 34.0004C131.975 34.4939 131.848 34.9483 131.73 35.3621C131.611 35.7755 131.531 36.0239 131.492 36.1019C131.412 36.2208 131.373 36.3394 131.373 36.4563C131.373 36.5749 131.353 36.7121 131.314 36.8715C131.197 37.6211 131.097 38.2033 131.019 38.617C130.939 39.0308 130.88 39.3666 130.841 39.6224C130.803 39.8804 130.782 40.0973 130.782 40.2734C130.782 40.4517 130.803 40.6591 130.841 40.8946C130.919 41.2122 130.88 41.4473 130.723 41.6052C130.565 41.7628 130.368 41.8425 130.131 41.8425C130.051 41.8425 129.895 41.8035 129.658 41.7242C128.71 41.2508 128.089 40.7184 127.794 40.1271C127.497 39.5351 127.349 38.9027 127.349 38.2331C127.349 37.7583 127.33 37.2354 127.291 36.6641C127.25 36.0927 127.25 35.3821 127.291 34.5328C127.33 33.685 127.447 32.669 127.645 31.4856C127.842 30.3023 128.158 28.8627 128.593 27.1656C128.749 26.6908 128.897 26.229 129.036 25.7745C129.174 25.3218 129.263 24.8175 129.302 24.2648C129.578 23.7138 129.736 23.1316 129.777 22.5192C129.815 21.9072 129.992 21.3267 130.309 20.774C130.348 20.6944 130.357 20.6164 130.338 20.5368C130.318 20.4585 130.309 20.3789 130.309 20.2992C130.387 19.7872 130.457 19.4331 130.517 19.2345C130.574 19.0379 130.633 18.8895 130.693 18.7912C130.752 18.693 130.803 18.6133 130.841 18.5536C130.88 18.4943 130.919 18.3662 130.96 18.1697C131.079 17.656 131.156 17.1443 131.197 16.6305C131.235 16.1185 131.353 15.5861 131.551 15.0334C131.433 15.1113 131.335 15.191 131.255 15.2689C131.177 15.3485 131.029 15.5658 130.812 15.9199C130.594 16.2761 130.298 16.8288 129.925 17.578C129.548 18.3276 129.007 19.392 128.296 20.774C128.139 21.1285 128.02 21.3748 127.942 21.5141C127.862 21.6514 127.764 21.8202 127.645 22.0167C127.527 22.2132 127.349 22.5287 127.113 22.9628C126.876 23.3983 126.521 24.0588 126.048 24.9456C125.574 25.8338 124.932 27.0266 124.123 28.5269C123.315 30.0257 122.259 31.9787 120.957 34.3861C120.681 34.8981 120.493 35.2729 120.395 35.5102C120.297 35.7457 120.198 35.9239 120.1 36.0425C120 36.1615 119.883 36.2594 119.744 36.3394C119.604 36.417 119.36 36.5749 119.004 36.8122C118.965 36.8515 118.866 36.8715 118.709 36.8715C118.51 36.8715 118.373 36.8122 118.295 36.6939C118.097 36.497 117.919 36.3191 117.761 36.1615C117.603 36.0039 117.505 35.7867 117.466 35.5102C117.466 35.195 117.407 35.0168 117.288 34.9782C117.169 34.9392 117.021 34.8592 116.845 34.7406C116.667 34.622 116.469 34.4068 116.253 34.0896C116.037 33.7741 115.808 33.2214 115.572 32.4332C115.374 31.6839 115.276 30.9438 115.276 30.2131C115.276 29.4843 115.326 28.7922 115.424 28.1412C115.522 27.4902 115.621 26.8687 115.721 26.277C115.817 25.6854 115.847 25.1734 115.808 24.7396C115.769 24.5817 115.788 24.4522 115.867 24.3536C115.947 24.2553 116.007 24.1462 116.046 24.0293C116.084 23.7917 116.144 23.4281 116.224 22.933C116.301 22.4413 116.4 21.9184 116.519 21.3657C116.637 20.813 116.756 20.2897 116.875 19.7967C116.993 19.3029 117.11 18.9786 117.229 18.8207C117.426 18.5835 117.535 18.3073 117.555 17.9918C117.574 17.6767 117.702 17.4001 117.939 17.1625C118.017 17.085 118.008 16.9772 117.909 16.8379C117.811 16.6989 117.82 16.5709 117.939 16.4522C118.058 16.2964 118.136 16.1073 118.177 15.8904C118.215 15.6753 118.332 15.5065 118.531 15.3875C118.689 15.2689 118.769 15.0538 118.769 14.7365C118.807 14.2638 118.935 13.8388 119.152 13.4644C119.369 13.0896 119.577 12.7056 119.774 12.3105C120.089 11.5612 120.306 10.9787 120.425 10.5632C120.543 10.1498 120.632 9.82516 120.692 9.58758C120.751 9.35035 120.799 9.17418 120.84 9.05521C120.879 8.93659 120.957 8.81797 121.076 8.69936C121.272 8.5825 121.331 8.34492 121.254 7.98872C121.174 7.87185 121.174 7.77359 121.254 7.69393C121.569 7.37844 121.766 7.00399 121.845 6.56988C121.923 6.13577 121.964 5.70201 121.964 5.26791C122.003 5.11034 122.042 4.97102 122.083 4.8524C122.122 4.73553 122.161 4.57796 122.2 4.37934Z" fill="#F4E012"/>
<path d="M142.028 27.3418C142.539 27.3418 142.994 27.1657 143.389 26.8095C143.94 26.4554 144.454 26.0508 144.927 25.5963C145.401 25.1439 145.795 24.621 146.112 24.0294C146.308 23.7139 146.377 23.5061 146.318 23.4079C146.258 23.3096 146.052 23.2205 145.696 23.1408C145.223 23.0218 144.81 22.9625 144.454 22.9625C144.02 22.9625 143.684 23.0425 143.448 23.2001C143.211 23.3577 143.024 23.5545 142.886 23.7918C142.747 24.0294 142.599 24.2757 142.441 24.5319C142.283 24.7877 142.087 25.0344 141.849 25.272C141.731 25.3517 141.662 25.4591 141.643 25.5963C141.623 25.7356 141.653 25.843 141.731 25.923C141.889 26.0806 141.938 26.1788 141.879 26.2178C141.82 26.2585 141.731 26.3364 141.614 26.4554C141.377 26.613 141.337 26.8502 141.495 27.1657C141.534 27.2843 141.653 27.3418 141.849 27.3418H142.028ZM140.785 30.8344C140.744 31.1513 140.755 31.4464 140.814 31.7226C140.874 31.9991 140.863 32.2757 140.785 32.5501C140.785 32.7098 140.804 32.7877 140.844 32.7877C141.119 32.7877 141.337 32.8859 141.495 33.0842C141.653 33.2811 141.889 33.3604 142.206 33.3197C143.072 33.2418 143.912 33.0344 144.721 32.6985C145.53 32.3648 146.288 31.9286 146.998 31.3966C147.709 30.8642 148.38 30.2725 149.011 29.6212C149.642 28.9705 150.215 28.3101 150.727 27.6387C151.912 26.1399 152.739 25.0457 153.214 24.3536C153.687 23.6637 154.021 23.1703 154.219 22.8737C154.416 22.5786 154.594 22.3617 154.752 22.2227C154.909 22.0852 155.264 21.7999 155.818 21.3658C155.935 21.2468 156.074 21.1875 156.232 21.1875C156.389 21.1875 156.508 21.2264 156.586 21.3064C156.862 21.464 156.961 21.7199 156.883 22.076C156.645 23.0218 156.3 23.8307 155.848 24.5021C155.393 25.1734 154.811 25.9434 154.1 26.8095C153.746 27.2046 153.351 27.6886 152.917 28.2599C152.483 28.833 152.001 29.4341 151.466 30.0648C150.934 30.6971 150.372 31.3187 149.78 31.9286C149.189 32.5406 148.556 33.1046 147.887 33.6166C147.689 33.7742 147.364 34.0507 146.909 34.4437C146.457 34.8389 145.943 35.2544 145.372 35.6882C144.799 36.1226 144.207 36.536 143.597 36.9312C142.983 37.3242 142.402 37.6004 141.849 37.7583C140.863 37.9956 140.152 38.1145 139.72 38.1145C138.85 38.1145 138.073 37.9756 137.381 37.699C136.691 37.4228 136.188 36.8308 135.871 35.924C135.755 35.6088 135.645 35.273 135.547 34.9186C135.449 34.5624 135.398 34.1879 135.398 33.7928C135.359 32.8859 135.321 31.9696 135.279 31.0421C135.241 30.1146 135.38 29.1983 135.695 28.2897C135.853 27.8556 136.001 27.4012 136.139 26.9281C136.278 26.4554 136.385 25.9823 136.465 25.5075C136.543 25.2331 136.641 25.0548 136.76 24.9751C136.879 24.8972 136.977 24.7007 137.057 24.3835C137.136 23.9901 137.273 23.6342 137.47 23.3187C137.669 23.0036 137.865 22.6881 138.062 22.3708C138.142 22.2133 138.201 22.0669 138.24 21.9276C138.279 21.7904 138.338 21.6419 138.418 21.4844C138.93 20.6162 139.551 19.995 140.282 19.6184C141.011 19.2458 141.829 18.9008 142.738 18.5835C143.053 18.4649 143.348 18.4053 143.625 18.4053C144.02 18.4053 144.374 18.4853 144.691 18.6428C145.913 19.1159 146.96 19.9652 147.827 21.1875C148.024 21.5047 148.132 21.8385 148.152 22.1929C148.173 22.5491 148.143 22.9032 148.065 23.2594C147.827 24.6414 147.325 25.843 146.555 26.8688C145.785 27.8963 144.81 28.7628 143.625 29.4727C143.231 29.6717 142.896 29.7903 142.619 29.8293C142.343 29.8679 141.989 29.8886 141.555 29.8886C141.475 29.8886 141.395 29.8791 141.317 29.8588C141.237 29.8384 141.178 29.8293 141.139 29.8293C140.943 29.8293 140.833 29.8791 140.814 29.9756C140.794 30.0756 140.785 30.2816 140.785 30.5968V30.8344Z" fill="#F4E012"/>
<path d="M0 39.2367V1.18361H4.12701V34.7461H19.4921V39.2367H0Z" fill="white"/>
<path d="M26.4234 25.4407C26.4234 29.009 27.0726 31.6656 28.3711 33.4073C29.6675 35.1489 31.2776 36.0186 33.1993 36.0186C34.9982 36.0186 36.5416 35.1395 37.8323 33.3809C39.1196 31.6227 39.7649 28.976 39.7649 25.4407C39.7649 21.8885 39.1157 19.2417 37.8194 17.5004C36.5209 15.7604 34.9112 14.8887 32.9912 14.8887C31.1737 14.8887 29.625 15.7643 28.3451 17.5134C27.0635 19.2642 26.4234 21.9074 26.4234 25.4407ZM22.5045 25.4536C22.5045 20.6942 23.504 17.1052 25.5018 14.681C27.5011 12.2584 30.031 11.0474 33.0951 11.0474C36.1054 11.0474 38.6227 12.2584 40.6479 14.681C42.6735 17.1052 43.6842 20.5998 43.6842 25.168C43.6842 30.1186 42.69 33.8042 40.6998 36.2263C38.7097 38.6485 36.1742 39.8596 33.0951 39.8596C30.0661 39.8596 27.5436 38.6446 25.5275 36.2133C23.5113 33.7817 22.5045 30.1962 22.5045 25.4536Z" fill="white"/>
<path d="M62.9963 29.139L66.7615 29.7363C66.3277 33.0249 65.2426 35.5345 63.5027 37.265C61.7649 38.9954 59.6743 39.8598 57.2353 39.8598C54.2752 39.8598 51.8397 38.6448 49.9274 36.2132C48.0152 33.7816 47.0599 30.1869 47.0599 25.4275C47.0599 20.6348 48.0243 17.0402 49.9534 14.6419C51.8825 12.2457 54.3622 11.0476 57.3912 11.0476C59.7263 11.0476 61.6943 11.7747 63.295 13.2286C64.8956 14.6808 65.9214 16.8622 66.3723 19.7687L62.6587 20.4439C62.2972 18.5836 61.6649 17.1925 60.7651 16.2705C59.8656 15.3504 58.7823 14.8889 57.5192 14.8889C55.633 14.8889 54.0709 15.7234 52.8339 17.3946C51.5968 19.064 50.9792 21.7164 50.9792 25.35C50.9792 29.1057 51.5709 31.823 52.756 33.4998C53.9411 35.1783 55.4603 36.0188 57.3132 36.0188C58.7654 36.0188 60.0081 35.4604 61.0377 34.3438C62.067 33.2271 62.7201 31.4928 62.9963 29.139Z" fill="white"/>
<path d="M84.412 25.4017C83.0114 26.0934 80.9247 26.6833 78.1576 27.1673C76.5475 27.4438 75.4217 27.7593 74.782 28.1152C74.1418 28.4693 73.6446 28.9704 73.2905 29.6196C72.9343 30.2685 72.7581 31.0181 72.7581 31.8656C72.7581 33.1806 73.1645 34.2323 73.9787 35.0188C74.7911 35.807 75.9151 36.2004 77.3526 36.2004C78.7195 36.2004 79.9604 35.8463 81.077 35.1356C82.1937 34.4271 83.0283 33.4796 83.5827 32.2941C84.1355 31.109 84.412 29.382 84.412 27.1154V25.4017ZM84.7236 35.8365C83.4438 37.1683 82.112 38.1719 80.7265 38.8471C79.3427 39.522 77.9053 39.8596 76.4177 39.8596C74.0639 39.8596 72.1871 39.1514 70.7844 37.7326C69.3842 36.3134 68.6834 34.4011 68.6834 31.9955C68.6834 30.4022 69.0115 28.9925 69.6681 27.7646C70.3265 26.5349 71.2263 25.574 72.3686 24.8823C73.5112 24.1903 75.2417 23.6804 77.5603 23.3523C80.6745 22.8939 82.9595 22.3486 84.412 21.7162L84.4376 20.5216C84.4376 18.6353 84.1021 17.313 83.4269 16.5504C82.4738 15.4432 81.0121 14.8887 79.0402 14.8887C77.2578 14.8887 75.9242 15.2597 75.0413 15.998C74.1604 16.7378 73.5112 18.1233 73.0957 20.158L69.3323 19.5348C69.8685 16.5767 70.9532 14.4213 72.5893 13.073C74.2254 11.7226 76.5644 11.0474 79.6098 11.0474C81.9821 11.0474 83.8424 11.4924 85.1911 12.3848C86.5411 13.2751 87.3925 14.3785 87.7487 15.6934C88.1031 17.0087 88.2807 18.9305 88.2807 21.4565V27.687C88.2807 32.0474 88.3628 34.7945 88.5278 35.9277C88.6906 37.0609 89.0156 38.1646 89.4995 39.2367H85.5024C85.1037 38.2849 84.8458 37.1518 84.7236 35.8365Z" fill="white"/>
<path d="M94.1178 1.18365H97.9353V39.2367H94.1178V1.18365Z" fill="white"/>
</svg>
